<?xml version="1.0" encoding="utf-8"?>
<svg xmlns="http://www.w3.org/2000/svg" viewBox="0 0 500 500" xmlns:bx="https://boxy-svg.com">
  <defs>
    <bx:export>
      <bx:file format="svg"/>
    </bx:export>
  </defs>
  <g transform="matrix(1.04552, 0, 0, 1.04552, -9.000871, -15.119252)">
    <ellipse style="stroke: rgb(0, 0, 0); fill: rgb(255, 255, 255); transform-box: fill-box; transform-origin: 50% 50%;" cx="247.302" cy="252.308" rx="223.702" ry="219.481"/>
    <g style="" transform="matrix(1.083389, 0, 0, 1.083389, -1.679488, -9.286365)">
      <path d="M 144.344 281.796 C 112.047 281.796 91.86 316.758 108.012 344.728 C 115.501 357.705 129.353 365.705 144.344 365.705 C 176.635 365.705 196.822 330.743 180.677 302.773 C 173.181 289.789 159.329 281.796 144.344 281.796 Z M 284.191 253.827 C 251.894 253.827 231.707 288.789 247.859 316.758 C 255.348 329.736 269.2 337.735 284.191 337.735 C 316.482 337.735 336.669 302.773 320.523 274.804 C 313.028 261.819 299.176 253.827 284.191 253.827 Z" style="stroke-width: 1; fill: rgb(255, 99, 72);"/>
      <path d="M 165.322 155.934 C 165.322 155.934 165.322 323.667 165.322 323.751 L 186.299 323.751 L 186.299 215.95 L 305.168 176.911 L 305.168 295.781 L 326.145 295.781 L 326.145 106.988 L 165.322 155.934 Z" style="stroke-width: 1; fill: rgb(255, 99, 72);"/>
    </g>
    <path d="M 28.395 229.26 L 468.365 229.26 L 468.365 277.083 L 28.395 277.083 L 28.395 229.26 Z" style="stroke-width: 0px; fill: rgb(255, 99, 72); transform-box: fill-box; transform-origin: 50% 50%;" transform="matrix(0.866035, 0.499984, -0.499984, 0.866035, -0.000003, 0)"/>
    <path d="M 247.724 14.461 C 116.21 14.461 8.609 122.063 8.609 253.576 C 8.609 385.09 116.21 492.692 247.724 492.692 C 379.238 492.692 486.84 385.09 486.84 253.576 C 486.84 122.063 379.238 14.461 247.724 14.461 Z M 247.724 444.869 C 142.513 444.869 56.432 358.788 56.432 253.576 C 56.432 148.366 142.513 62.283 247.724 62.283 C 352.935 62.283 439.018 148.366 439.018 253.576 C 439.018 358.788 352.935 444.869 247.724 444.869 Z" style="paint-order: stroke; stroke-width: 0px; fill: rgb(255, 99, 72); transform-box: fill-box; transform-origin: 50% 50%;"/>
  </g>
</svg>