<?xml version="1.0" encoding="utf-8"?>
<svg xmlns="http://www.w3.org/2000/svg" viewBox="0 0 500 500" xmlns:bx="https://boxy-svg.com">
  <defs>
    <bx:export>
      <bx:file format="svg"/>
    </bx:export>
  </defs>
  <g transform="matrix(1.04552, 0, 0, 1.04552, -9.000871, -15.119252)">
    <ellipse style="stroke: rgb(0, 0, 0); fill: rgb(255, 255, 255); transform-box: fill-box; transform-origin: 50% 50%;" cx="247.302" cy="252.308" rx="223.702" ry="219.481"/>
    <path d="M 220.48 108.344 L 220.48 274.425 C 176.95 245.351 118.265 274.298 114.836 326.535 C 111.423 378.773 165.825 415.13 212.784 391.966 C 234.858 381.08 249.331 359.101 250.611 334.515 L 250.706 331.007 L 250.706 205.582 L 333.597 255.321 C 343.567 261.326 356.287 254.263 356.491 242.633 C 356.491 242.539 356.491 242.443 356.491 242.365 L 356.491 171.815 C 356.491 166.506 353.711 161.592 349.16 158.858 L 243.374 95.386 C 233.405 89.398 220.684 96.445 220.48 108.074 C 220.48 108.17 220.48 108.248 220.48 108.344 Z M 250.706 170.329 L 250.706 135.046 L 326.266 180.379 L 326.266 215.677 L 250.706 170.329 Z M 182.699 293.227 C 211.79 293.227 229.976 324.718 215.423 349.92 C 208.676 361.613 196.194 368.803 182.699 368.803 C 153.61 368.803 135.424 337.311 149.978 312.124 C 156.724 300.433 169.207 293.227 182.699 293.227 Z" style="stroke-width: 0.956; fill: rgb(255, 99, 72);"/>
    <path d="M 28.395 229.26 L 468.365 229.26 L 468.365 277.083 L 28.395 277.083 L 28.395 229.26 Z" style="stroke-width: 0px; fill: rgb(255, 99, 72); transform-box: fill-box; transform-origin: 50% 50%;" transform="matrix(0.866035, 0.499984, -0.499984, 0.866035, -0.000003, 0)"/>
    <path d="M 247.724 14.461 C 116.21 14.461 8.609 122.063 8.609 253.576 C 8.609 385.09 116.21 492.692 247.724 492.692 C 379.238 492.692 486.84 385.09 486.84 253.576 C 486.84 122.063 379.238 14.461 247.724 14.461 Z M 247.724 444.869 C 142.513 444.869 56.432 358.788 56.432 253.576 C 56.432 148.366 142.513 62.283 247.724 62.283 C 352.935 62.283 439.018 148.366 439.018 253.576 C 439.018 358.788 352.935 444.869 247.724 444.869 Z" style="paint-order: stroke; stroke-width: 0px; fill: rgb(255, 99, 72); transform-box: fill-box; transform-origin: 50% 50%;"/>
  </g>
</svg>